<svg xmlns="http://www.w3.org/2000/svg" width="18" height="7.773" viewBox="0 0 18 7.773" id="svg2">
  <g id="ams-metro-18">
    <path id="path4" d="M14.23 0H3.77C1.69 0 0 1.74 0 3.886c0 2.147 1.69 3.887 3.77 3.887h10.46c2.082 0 3.77-1.74 3.77-3.887C18 1.74 16.312 0 14.23 0z" fill="#0863b5"/>
    <path d="M5.254 2.178c.004 0 .004.213.002.473l-.005.48-.57.31-.58.31-.77.01-.77.007V2.9h1.33l.69-.36c.38-.196.69-.36.7-.36z" id="path8" fill="#fff"/>
    <path d="M8.126 3.74H7.34c-.553.002-.8.01-.84.024-.032.012-.523.265-1.094.563L4.37 4.87l-.915.005-.914.005v-.826l.8-.006.8-.006.12-.06 1.1-.57.98-.51.91-.005.903-.006v.85z" id="path10" fill="#fff"/>
    <path d="M5.407 5.128v-.466l.586-.305.586-.305h1.54v.825l-.67.005-.67.006-.68.353c-.38.2-.69.36-.7.36-.01 0-.02-.21-.02-.46z" id="path12" fill="#fff"/>
    <path id="path14" d="M10.805 4.764c-.18.032-.35.056-.508.073-.158.016-.308.024-.45.024-.393 0-.688-.08-.887-.24-.198-.16-.297-.4-.297-.73 0-.33.1-.58.302-.75.202-.17.495-.26.88-.26.326 0 .568.05.726.15.16.1.25.26.25.47h-.62c0-.07-.03-.13-.1-.18-.06-.04-.15-.06-.25-.06-.17 0-.31.06-.41.17-.09.11-.14.265-.14.463 0 .21.06.365.16.47.11.107.27.16.48.16.05 0 .11-.003.16-.01.06-.005.11-.014.17-.026v-.35h-.45v-.37h1.01v1.02zm.947.064L11 2.902h.628l.516 1.402.523-1.402h.6l-.782 1.926h-.733zm1.69 0V2.902h.816c.33 0 .572.04.73.12.157.082.235.207.235.377 0 .11-.038.2-.116.27-.077.07-.193.12-.35.15.18.03.314.08.4.16.087.08.13.18.13.31 0 .17-.07.3-.21.39-.142.08-.356.13-.642.13h-.993zm.583-1.145h.233c.13 0 .225-.018.285-.053.06-.036.09-.09.09-.165 0-.072-.03-.125-.093-.16-.063-.037-.157-.055-.28-.055h-.234v.433zm0 .795h.233c.147 0 .253-.018.318-.055.065-.037.098-.098.098-.18 0-.08-.034-.136-.1-.173-.068-.037-.173-.056-.316-.056h-.234v.464z" fill="#fff"/>
  </g>
</svg>
