<svg xmlns="http://www.w3.org/2000/svg" width="12" height="12" viewBox="0 0 12 12" id="svg2">
  <g id="ams-metro-12">
    <path d="M12 6A6 6 0 1 1 0 6a6 6 0 1 1 12 0z" id="path2990" fill="#0863b5"/>
    <g id="g2992" fill="#fff">
      <path id="path8" d="M5.845 3.154c.006 0 .006.354.003.787l-.008.8-.948.515-.965.516-1.28.017-1.28.012V4.354h2.21l1.148-.6c.632-.325 1.148-.598 1.164-.598z"/>
      <path id="path10" d="M10.62 5.75H9.313c-.92.005-1.33.018-1.397.04-.053.02-.87.442-1.82.937l-1.72.903-1.523.01-1.52.007V6.274l1.33-.01 1.33-.01.2-.1 1.83-.948 1.63-.848 1.512-.008 1.502-.01v1.413z"/>
      <path id="path12" d="M6.1 8.06v-.775l.973-.508.975-.507h2.56v1.372l-1.114.008-1.114.01-1.13.587c-.632.333-1.148.6-1.164.6-.017 0-.034-.35-.034-.766z"/>
    </g>
  </g>
</svg>
