<svg xmlns="http://www.w3.org/2000/svg" width="18" height="18" viewBox="0 0 18 18" id="svg2">
  <g id="gla-metro-18">
    <path id="path4" d="M9 0C4.03 0 0 4.03 0 9s4.03 9 9 9 9-4.03 9-9-4.03-9-9-9zm0 15.954c-3.84 0-6.955-3.113-6.955-6.954C2.045 5.16 5.16 2.045 9 2.045S15.955 5.16 15.955 9 12.84 15.954 9 15.954z" fill="#f89829"/>
    <path id="path6" d="M9 2.045C5.16 2.045 2.045 5.16 2.045 9S5.16 15.954 9 15.954 15.955 12.84 15.955 9 12.84 2.045 9 2.045zm0 11.608c-2.57 0-4.654-2.083-4.654-4.653C4.346 6.43 6.43 4.346 9 4.346S13.653 6.43 13.653 9 11.57 13.653 9 13.653z" stroke-miterlimit="10" fill="#717174" stroke="#717174" stroke-width=".015"/>
    <path id="path8" d="M9 4.347C6.43 4.347 4.347 6.43 4.347 9c0 2.57 2.083 4.654 4.653 4.654 2.57 0 4.653-2.084 4.653-4.654S11.57 4.347 9 4.347z" fill="#fff"/>
    <path id="path10" d="M6.957 11.41l.243-1.13c.454.134 1.122.257 1.678.257.556 0 .667-.113.667-.422 0-.34-.06-.423-1.01-.577-1.376-.227-1.518-.773-1.518-1.752 0-1.175.698-1.566 2.084-1.566.51 0 1.3.082 1.8.226l-.17 1.206c-.582-.123-1.14-.185-1.62-.185-.48 0-.59.072-.59.37 0 .36.05.413.95.577 1.478.268 1.58.62 1.58 1.628 0 1.154-.406 1.742-2.186 1.742-.606 0-1.335-.124-1.9-.37z" fill="#f89829"/>
  </g>
</svg>
