<svg xmlns="http://www.w3.org/2000/svg" version="1" width="18" height="12.42"><g fill-rule="evenodd"><path d="M9 0C4.03 0 0 4.1 0 9.13c0 1.16.22 2.27.6 3.3h.55C.73 11.4.5 10.28.5 9.13.5 4.36 4.3.52 9 .52s8.5 3.84 8.5 8.6c0 1.16-.24 2.28-.65 3.3h.54c.37-1.03.6-2.14.6-3.3C18 4.1 13.96 0 9 0z" fill="#fef406"/><path d="M9 1.03c-4.4 0-8 3.63-8 8.1 0 1.17.26 2.3.7 3.3h14.6c.44-1 .7-2.13.7-3.3 0-4.47-3.6-8.1-8-8.1z" fill="#fef406"/><path d="M6.15 2.8l-4.18 8.48h2.85L6.4 8.1 9 11.3l2.6-3.17 1.58 3.18h2.85l-4.17-8.5L9 6.74 6.16 2.8z" fill="#00923f"/></g></svg>