<svg xmlns="http://www.w3.org/2000/svg" version="1" width="15.453" height="18" id="svg2">
  <g id="kyiv-metro-18" fill-rule="evenodd">
    <path id="path4" d="M7.727 0C3.84 0 .687 3.198.687 7.138c0 .91.172 1.777.478 2.578h.42c-.324-.794-.5-1.665-.5-2.578C1.085 3.42 4.06.403 7.725.403c3.667 0 6.643 3.017 6.643 6.735 0 .913-.178 1.784-.503 2.578h.42c.308-.8.48-1.668.48-2.578C14.765 3.198 11.61 0 7.725 0z" fill="#fef406"/>
    <path id="path6" d="M7.727.806C4.28.806 1.48 3.642 1.48 7.138c0 .918.193 1.79.54 2.578h11.413c.347-.788.54-1.66.54-2.578 0-3.496-2.8-6.332-6.246-6.332z" fill="#fef406"/>
    <path id="path8" d="M5.496 2.18L2.224 8.824h2.23l1.24-2.478 2.033 2.478 2.033-2.48 1.238 2.48h2.23L9.96 2.18 7.73 5.254 5.495 2.18z" fill="#00923f"/>
    <path id="path10" d="M1.735 10.21L0 15.07h4.226l2.72-3.36-1.983 3.41L7.727 18l2.763-2.88-1.976-3.41 2.714 3.36h4.225l-1.735-4.86H1.735z" fill="#fef406"/>
    <path id="path12" d="M.49 14.722l1.487-4.164H7.43l-3.37 4.164H.49zm14.474 0l-1.487-4.164H8.024l3.37 4.164h3.57zm-7.237 2.776l-2.33-2.43 2.33-4.014 2.33 4.015-2.33 2.426z" fill="#00923f"/>
  </g>
</svg>
