<svg xmlns="http://www.w3.org/2000/svg" width="18.095" height="18.088" id="svg2">
  <g id="kzn-metro-18">
    <path id="path4" d="M273.25 40.222c0 17.535-13.767 31.75-30.75 31.75s-30.75-14.215-30.75-31.75 13.767-31.75 30.75-31.75 30.75 14.215 30.75 31.75z" transform="matrix(.291 0 0 .282 -61.454 -2.292)" fill="#acbaac" stroke="#04562c" stroke-width=".743" stroke-linecap="round" stroke-linejoin="round"/>
    <path id="path6" d="M9.027 7.266L6.077 2.99l-4.15 10.487h4.25c.538-1.176 1.076-2.352 1.618-3.527l.532.006c.255.182.463.474.7.698l.615-.646c.162-.12.41-.022.614-.058.546 1.175 1.086 2.35 1.627 3.527h4.244L11.982 2.99 9.027 7.265" fill="#04562c"/>
    <path id="path8" d="M7.79 9.95l-1.613 3.527m0 0h-4.25m0 0L6.077 2.99l2.95 4.276M10.26 9.95l1.62 3.527m0 0h4.246m0 0L11.982 2.99 9.027 7.265m0 0L7.79 9.95m1.237-2.684l1.235 2.684m0 0l-.57.006-.665.698-.665-.698-.57-.006" fill="none" stroke="#fff" stroke-width=".133" stroke-linecap="round" stroke-linejoin="round"/>
  </g>
</svg>
