<svg xmlns="http://www.w3.org/2000/svg" width="13.909" height="18" version="1" id="svg2">
  <defs id="defs4">
    <clipPath id="a">
      <path d="M0 396.54h56.693v85.35H0v-85.35z" id="path7"/>
    </clipPath>
  </defs>
  <g id="lau-metro-18">
    <path d="M13.907 6.953c0 3.84-3.114 6.952-6.953 6.952C3.114 13.905 0 10.792 0 6.953 0 3.113 3.114 0 6.955 0c3.84 0 6.954 3.113 6.954 6.953" id="path11" fill="#fff"/>
    <path d="M1.737 15.88h.502v.29c.17-.254.41-.338.61-.338.29 0 .49.108.61.365.12-.25.39-.365.64-.365.51 0 .65.35.65.81v1.305h-.54v-1.232c0-.193 0-.466-.31-.466-.36 0-.4.42-.4.69v1h-.53v-1.23c0-.2 0-.47-.31-.47-.36 0-.41.42-.41.69v1h-.54v-2.06zm4.352-.867h.55l-.55.586h-.34l.33-.59zm.42 1.698c-.02-.26-.14-.48-.44-.48s-.46.21-.48.49h.91zm.36 1.12c-.2.11-.42.17-.71.17-.69 0-1.08-.39-1.08-1.07 0-.6.32-1.09.96-1.09.76 0 .98.53.98 1.25H5.59c.027.34.26.52.593.52.26 0 .488-.09.687-.21v.44zm.65-1.55h-.4v-.39h.39v-.41l.54-.17v.59h.48v.4h-.48v.97c0 .18.05.34.25.34.09 0 .19-.02.24-.05l.01.425c-.12.03-.24.05-.4.05-.42 0-.66-.26-.66-.67V16.3zm1.3-.39h.47v.47h.01c.02-.19.24-.51.56-.51.05 0 .11 0 .16.02v.54c-.05-.02-.15-.04-.24-.04-.44 0-.44.55-.44.85v.76h-.53V15.9zm2.32 1.7c.41 0 .52-.37.52-.71 0-.32-.17-.61-.53-.61-.35 0-.52.31-.52.62 0 .34.11.72.51.72m0-1.743c.61 0 1.08.41 1.08 1.094 0 .593-.4 1.07-1.088 1.07-.68 0-1.08-.477-1.08-1.07 0-.684.474-1.097 1.08-1.097" id="path13" fill="#0055a0"/>
    <path d="M3.562 11.246c-.24 0-.466-.093-.636-.263-.35-.35-.35-.922 0-1.273l6.79-6.79c.352-.35.924-.35 1.274 0 .17.17.264.397.264.638 0 .24-.094.463-.264.636L4.2 10.98c-.17.17-.396.262-.636.262m2.585-.263c-.18-.18-.27-.41-.27-.64 0-.23.09-.46.26-.64l6.59-6.59C11.5 1.24 9.37 0 6.96 0 3.125 0 0 3.115 0 6.948c0 .74.134 1.45.348 2.117L6.494 2.92c.35-.353.922-.353 1.273 0 .175.174.263.404.263.635 0 .23-.087.46-.263.637l-6.594 6.595c1.243 1.87 3.37 3.106 5.784 3.106 3.833 0 6.94-3.108 6.94-6.942 0-.73-.116-1.44-.33-2.11L7.42 10.99c-.35.35-.92.35-1.272 0" id="path15" fill="#e3007b"/>
  </g>
</svg>
