<svg xmlns="http://www.w3.org/2000/svg" width="12" height="11.997" version="1" id="svg2">
  <defs id="defs4">
    <clipPath id="a">
      <path d="M0 396.54h56.693v85.35H0v-85.35z" id="path7"/>
    </clipPath>
  </defs>
  <g id="lau-metro-12">
    <path d="M3.076 9.71c-.207 0-.403-.08-.55-.226-.302-.302-.302-.796 0-1.1L8.39 2.522c.304-.3.798-.3 1.1 0 .147.148.228.344.228.552 0 .208-.08.4-.228.55l-5.863 5.86c-.147.146-.342.225-.55.225m2.233-.23c-.156-.155-.234-.354-.234-.552 0-.2.078-.398.225-.553l5.69-5.69C9.93 1.07 8.09 0 6.01 0 2.698 0 0 2.69 0 6c0 .64.116 1.252.3 1.828L5.608 2.52c.302-.303.796-.303 1.1 0 .15.152.226.35.226.55 0 .198-.075.397-.227.55L1.013 9.315c1.073 1.614 2.91 2.682 4.994 2.682 3.31 0 5.993-2.684 5.993-5.995 0-.63-.1-1.243-.285-1.822L6.407 9.49c-.302.302-.794.302-1.098 0" id="path15" fill="#e3007b"/>
  </g>
</svg>
