<svg xmlns="http://www.w3.org/2000/svg" width="18" height="18" version="1" id="svg2">
  <g id="mrs-metro-18">
    <path id="path6" d="M0 18h18V0H0v18z" fill="#1a171b"/>
    <path id="path8" d="M1.233 11.79V6.116H2.52l.77 3.87.765-3.87h1.287v5.673h-.8V7.32L3.7 11.79h-.83l-.84-4.466v4.465h-.8zm5.865-4.613l.4-1.157h.915l-.8 1.157H7.1zM8.14 9.382c-.006-.315-.067-.553-.183-.718C7.84 8.5 7.7 8.42 7.533 8.42c-.177 0-.324.085-.44.258-.116.172-.173.408-.172.704h1.22zm-.046 1.1l.812.18c-.104.4-.27.7-.495.91-.22.206-.5.31-.84.31-.53 0-.93-.232-1.19-.7-.2-.372-.3-.845-.3-1.415 0-.68.14-1.214.4-1.6.27-.386.61-.578 1.01-.578.46 0 .82.2 1.09.6.27.4.39 1.02.38 1.85H6.91c.005.32.07.57.196.75.125.18.282.27.47.27.128 0 .236-.05.322-.14.087-.1.153-.24.197-.45m3.055-2.8v.86h-.56v1.66c0 .33.005.53.016.58.01.055.035.1.073.14.03.032.08.05.13.05.07 0 .18-.038.32-.108l.07.847c-.19.11-.41.164-.65.164-.15 0-.28-.033-.4-.1-.12-.065-.21-.15-.26-.254-.06-.103-.1-.244-.12-.42-.02-.125-.028-.38-.028-.766V8.54h-.37v-.86h.37v-.816l.82-.634v1.45h.557zm1.464 4.11H11.8v-4.1h.758v.58c.13-.28.247-.46.35-.55.106-.09.224-.14.354-.14.186 0 .365.07.537.2l-.26.94c-.14-.12-.27-.178-.38-.178-.12 0-.21.04-.29.123-.08.08-.14.232-.19.452-.05.22-.07.68-.07 1.375v1.27zm2.3-2.06c0 .41.074.72.22.93.144.22.322.33.535.33.21 0 .39-.11.53-.33.14-.22.22-.53.22-.947 0-.4-.07-.71-.22-.928-.15-.217-.32-.326-.54-.326-.22 0-.39.11-.54.323-.15.22-.22.53-.22.94m-.84-.06c0-.364.067-.71.2-1.05.133-.34.322-.6.567-.776.247-.178.52-.266.82-.266.47 0 .85.2 1.15.604.3.405.445.915.445 1.53 0 .624-.15 1.14-.45 1.547-.305.406-.68.61-1.14.61-.28 0-.55-.084-.808-.255-.26-.17-.45-.42-.59-.75-.132-.325-.2-.73-.2-1.2" fill="#fff"/>
  </g>
</svg>
