<svg xmlns="http://www.w3.org/2000/svg" viewBox="0 0 11.054 12" id="svg2">
  <g id="niz-metro-12">
    <path d="M10.46 5.076c0 2.806-2.272 5.08-5.08 5.08-2.803 0-5.08-2.274-5.08-5.08S2.578 0 5.38 0c2.808 0 5.08 2.27 5.08 5.076z" id="circle6" fill="#0168d3"/>
    <path d="M10.24 5.108c0 2.677-2.17 4.848-4.847 4.848-2.678 0-4.848-2.17-4.848-4.848S2.715.26 5.393.26c2.677 0 4.847 2.173 4.847 4.85z" id="circle8" stroke-miterlimit="10" fill="#0168d3" stroke="#fff" stroke-width=".177"/>
    <path d="M1.724 8.143l-.18-.114 1.68-3.84L5.5 6.99l2.2-2.804 1.76 3.85-.212.056.158.35.144-.215 1.502 3.283-3.942-.003-.502-.965L5.502 12l-1.04-1.464-.37.996H0l1.46-3.308.118.22" id="path10" fill="#0168d3"/>
    <path d="M7.672 4.7l2.947 6.554h-3.3l-.66-1.278-1.16 1.557-1.106-1.56-.5 1.294H.397l2.895-6.564L5.5 7.517z" stroke-miterlimit="10" id="path12" fill="#fc020d" stroke="#fff" stroke-width=".151"/>
  </g>
</svg>
