<svg xmlns="http://www.w3.org/2000/svg" viewBox="0 0 16.575 18" id="svg2">
  <g transform="scale(.129)" id="niz-metro-18">
    <circle transform="matrix(.174 0 0 .174 -2.49 -2.437)" cx="380.1" cy="359" r="345" id="circle6" fill="#0168d3"/>
    <circle transform="matrix(.174 0 0 .174 -2.49 -2.437)" stroke-miterlimit="10" cx="380.8" cy="361.2" r="329.2" id="circle8" fill="#0168d3" stroke="#fff" stroke-width="12"/>
    <path d="M19.97 94.31l-2.09-1.322 19.448-44.466 26.36 32.47 25.522-32.47 20.387 44.588-2.454.644 1.793 4.057 1.67-2.5L128 133.33l-45.65-.018-5.832-11.178-12.83 16.87-12.05-16.957-4.282 11.525H0l16.888-38.33 1.393 2.56" id="path10" fill="#0168d3"/>
    <path d="M88.862 54.442l34.124 75.908H84.788l-7.678-14.798-13.423 18.02-12.814-18.09-5.78 14.973H4.595l33.532-76.013 25.56 32.592z" stroke-miterlimit="10" id="path12" fill="#fc020d" stroke="#fff" stroke-width="1.741"/>
    <path d="M65.037 22.257c-2.842-.52-2.794-3.315-2.18-5.588.286-1.05 1.327-3.18 3.695-4.08-2.7-.19-3.173 2.13-3.646 1.94-.284-.14.094-2.23.426-3.13-1.468.99-1.09 3.88-1.184 4.83-.237 2.27-.616 2.55-1.894.8-.426-.62-.52-1.14-.71-2.56-.758 3.08 1.8 4.54 2.367 5.68.24.52-.23.85-1.04.42-.47-.24-.57-.34-.99-1.09.48 2.84 2.09 1.04 3.22 3.12.43-.1.86-.1 1.23.04l.71-.43z" id="path14" fill="#fff"/>
    <path d="M64.28 22.73c.378.143.757.38 1.136.806 1.847-1.752 4.262-2.13 5.35-4.546.71-1.61.9-5.636-.283-7.91.71 5.73-.237 7.436-1.42 1.99-.522 3.126 1.94 5.162.283 6.82-.852.852-1.468-.19-2.083-2.795-.806 2.368.805 3.173 0 4.073-.9 1.042-2.037.947-2.226-1.468-.568.852-.284 1.847 0 2.605l-.616-.095h-.99l.85.52z" id="path22" fill="#fff"/>
    <path d="M63.71 22.53c-1.372-.05-1.202.688-2.906.968-.332.05-.643 0-1.21 0v.242c-.427-.048-.728-.09-.728.243 0 .303.315.605.485.726 1.71.05 2.2.77.49.72-.23 0-.91-.14-.72.24.14.33.4.24.73.24.29 0 .79-.05 1.21 0 .43.05.5.82 1.21.97 0 1.04-.21 2.13-1.45 2.42-.52.09-4.55.87-4.6 5.09 0 1.7-.1 1.71 0 2.66.05.99.295 1.71.485 2.42-1.56.38-1.612.482-2.422.722-1.32.38-2.65.58-4.12.484l-.48.243c-.66 1.8-2.506 3.09-4.116 4.6v.24c.15.71-.154 1.52-.244 2.18h.243c-.24.52-.49.89-.49 1.456l1.45-1.213-.243-.724h-.244c-.04-.62.243-.985.483-1.455l.24-.24c1.28-1.56 2.697-2.694 4.117-3.877 1.09-.43 2.3-.39 3.15-.247 1.14.19 2.162 1.08 3.632 1.453.14.663.295 1.512.485 1.936.67 1.374.867 2.32.727 4.12v.24c.95 1.47 1.76 3.055 2.18 5.33-.045.61-.46 1.713-1.21 2.663-.477.237-.93.495-1.215.97h1.933v-.728c.38-.804.988-1.763 1.698-2.423v-.243c-.9-1.94-1.556-4.07-1.936-6.296v-.242c-.57-1.23-.463-3.75.487-4.604 1.8 1.8 4.63.22 7.996-.73-.76.71-.845 2.91.244 7.27 0 .99-1.29 3.22-2.42 4.36-.33 1.09-.746 1.902-1.456 2.662-.473.237-.684.495-.97.97h1.94v-.73c.38-.85.78-1.456 1.21-1.696l.485-.242c.23-1.42 1.62-3.714 2.66-5.084v-.482c-.85-1.18-.726-1.75-.726-2.18 0-1.47 2.11-1.31 2.91-3.39 3.65 2.37 4.93 3.01 6.54 5.57.76 1.23 1.327 3.06 1.94 5.09-.38.9-.933 1.56-1.453 2.18-.473.238-.685.496-.97.97h1.696v-.73h.24c.33-.57.837-1.643 1.45-1.693l-.24-.726c-.85-1.8-1.02-3.687-1.21-5.817l-.485-.49c-2.32-1.565-3.963-4.22-3.632-6.54.24-1.566 1.853-2.39.243-5.33.21-.12.488-.3.488-.726 0-.95-.07.204-.97.244-1.325-1.23-1.845-1.94-4.117-1.94-1.94.04-1.876.675-3.39.725-.994.04-1-.625-2.42-.725-.95-.05-1.95.957-2.424.487-.524-.52-.43-2.144 0-2.664 2.27-2.89 2.315-6.23 1.936-7.99-.09 0-.39-.19-.48-.24.85.19 1.56.36 1.94-.73.19-.62-.052-.47-.242-.24-.38.47-1.03.38-1.452.24-.43-.62-1.23-.93-1.94-.97z" id="path16" fill="#fff" stroke="#fff" stroke-width=".465" stroke-linecap="round" stroke-linejoin="round"/>
  </g>
</svg>
