<svg xmlns="http://www.w3.org/2000/svg" viewBox="0 0 18 10.608" id="svg2">
  <g id="nsk-metro-18">
    <path id="path4" d="M13.627 10.308l-2.256-8.56L9 6.455 6.632 1.75l-2.256 8.558 1.787.01.947-3.708L9 10.608l1.893-3.998.948 3.707" fill="#db2c2d"/>
    <path id="path6" d="M9 .635c2.468 0 4.624 1.22 4.624 1.22 5.287 3.635.19 8.47.19 8.47s9.138-4.94.41-9.105C14.224 1.22 12.022 0 9 0 5.978 0 3.776 1.22 3.776 1.22c-8.728 4.164.41 9.104.41 9.104s-5.097-4.834.19-8.47c0 0 2.16-1.22 4.624-1.22z" fill="#0097f1"/>
  </g>
</svg>
