<svg xmlns="http://www.w3.org/2000/svg" width="18" height="18" viewBox="0 0 18 18" id="svg2">
  <g id="sam-metro-18">
    <path d="M18.056 9.028c0 4.986-4.042 9.028-9.028 9.028C4.042 18.056 0 14.014 0 9.028 0 4.042 4.042 0 9.028 0c4.986 0 9.028 4.042 9.028 9.028z" id="circle6" fill="#0b4372"/>
    <path d="M5.717 1.688l-.225-.4C7.312.45 9.43.234 11.506.83c.356.103.7.226 1.033.37l-.18.394M1.08 7.404L.63 7.34c.44-1.955 1.552-3.768 3.287-5.055.3-.22.61-.42.92-.598l.21.382M3.07 14.52l-.316.335C1.4 13.375.558 11.422.5 9.262c-.008-.37.005-.736.04-1.095l.432.053m16.01-.92l.455-.064C17 5.28 15.884 3.468 14.15 2.18c-.3-.22-.607-.42-.92-.598l-.206.384m1.983 12.455l.313.34c1.348-1.48 2.19-3.43 2.247-5.59.01-.37-.003-.74-.04-1.096l-.43.05" stroke-miterlimit="10" id="path8" fill="none" stroke="#efe055" stroke-width=".231"/>
    <path d="M14.987 15.418c-1.56 1.462-3.643 2.344-5.95 2.344-2.304 0-4.4-.893-5.957-2.35l11.907.006" id="path10" fill="#f6e548"/>
    <path d="M9.265 13.903l2.507-5.28c.34 2.245.887 3.86 3.8 3.66l-3.06-9.04-3.248 5.66-3.25-5.66-3.056 9.04c2.912.2 3.46-1.415 3.8-3.66l2.507 5.28z" stroke-miterlimit="10" id="path12" fill="#fd0402" stroke="#efe055" stroke-width=".231"/>
  </g>
</svg>
