<?xml version="1.0" encoding="UTF-8" standalone="no"?>
<svg
   xmlns:dc="http://purl.org/dc/elements/1.1/"
   xmlns:cc="http://creativecommons.org/ns#"
   xmlns:rdf="http://www.w3.org/1999/02/22-rdf-syntax-ns#"
   xmlns:svg="http://www.w3.org/2000/svg"
   xmlns="http://www.w3.org/2000/svg"
   xmlns:sodipodi="http://sodipodi.sourceforge.net/DTD/sodipodi-0.dtd"
   xmlns:inkscape="http://www.inkscape.org/namespaces/inkscape"
   width="18"
   height="14.777135"
   viewBox="0 0 1800000 1479660.4"
   id="svg2999"
   image-rendering="optimizeQuality"
   shape-rendering="geometricPrecision"
   text-rendering="geometricPrecision"
   version="1.1"
   inkscape:version="0.48.4 r9939"
   sodipodi:docname="spb-metro-18.svg">
  <metadata
     id="metadata9">
    <rdf:RDF>
      <cc:Work
         rdf:about="">
        <dc:format>image/svg+xml</dc:format>
        <dc:type
           rdf:resource="http://purl.org/dc/dcmitype/StillImage" />
        <dc:title></dc:title>
      </cc:Work>
    </rdf:RDF>
  </metadata>
  <sodipodi:namedview
     pagecolor="#ffffff"
     bordercolor="#666666"
     borderopacity="1"
     objecttolerance="10"
     gridtolerance="10"
     guidetolerance="10"
     inkscape:pageopacity="0"
     inkscape:pageshadow="2"
     inkscape:window-width="1920"
     inkscape:window-height="1125"
     id="namedview7"
     showgrid="false"
     fit-margin-top="0"
     fit-margin-left="0"
     fit-margin-right="0"
     fit-margin-bottom="0"
     inkscape:zoom="46.554687"
     inkscape:cx="8.0005398"
     inkscape:cy="6.5693567"
     inkscape:window-x="-9"
     inkscape:window-y="-9"
     inkscape:window-maximized="1"
     inkscape:current-layer="svg2999" />
  <defs
     id="defs3001">
    <style
       id="style3003">
      .fil0 {fill:#2250A3}
    </style>
  </defs>
  <g
     id="spb-metro-18"
     transform="matrix(1.1247019,0,0,1.1247019,-112409.71,-273735.18)">
    <path
       id="path4"
       class="fil0"
       d="M 1440920.9,408124.82 C 1301355.1,282290.52 1168651.4,243384.65 1168651.4,243384.65 L 900960.2,1155165.5 H 898668.34 L 628688.72,243384.65 C 628688.72,243384.65 495984.38,281133.95 356418.02,408124.82 207698.22,543115.8 79573,750188.6 101307.96,1078497.4 118469.13,1338187.1 310659.6,1558968.9 310659.6,1558968.9 L 682458.67,1557826.3 C 682458.67,1557826.3 363283.93,1388529.8 286636.72,1121973.6 195116.42,807378.81 338115.29,588864.16 447939.19,484776.96 492555.59,445871.09 557761.49,436726.42 581784.51,520244.09 664151.41,786787.29 899812.91,1549829.2 899812.91,1549829.2 H 900960.21 C 900960.21,1549829.2 1135479.4,786802.29 1218987.9,520244.09 1244157.1,436739.42 1309361.7,445871.09 1352832.6,484776.99 1462656.9,588873.17 1605654.9,807378.82 1514134.4,1121980.6 1437488.1,1388529.8 1118315.1,1557835.3 1118315.1,1557835.3 L 1490111.9,1558986.9 C 1490111.9,1558986.9 1683448.3,1337067.5 1699464.8,1078498.4 1718913,750188.59 1590783.3,543115.79 1440920.9,408124.81 z"
       inkscape:connector-curvature="0"
       style="fill:#2250a3" />
  </g>
</svg>
