<svg xmlns="http://www.w3.org/2000/svg" width="20" height="16.78" viewBox="0 0 1999776.6 1679923.2" id="svg2999" image-rendering="optimizeQuality" shape-rendering="geometricPrecision" text-rendering="geometricPrecision"><defs id="defs3001"><style id="style3003">.fil0 {fill:#2250A3}</style></defs><g id="spb-metro-18"><path id="path4" class="fil0" d="M1608207.14 285413.9c-156970-141526.07-306222.1-185283.57-306222.1-185283.57l-301072.76 1025481.7h-2577.66l-303646.6-1025481.7S545435.2 142587.03 388464.66 285413.9C221199.2 437238.53 77096.53 670133.7 101541.88 1039383.24c19301.2 292073.5 235458.2 540387.2 235458.2 540387.2l418163.1-1285.1S396186.78 1388077.24 309981.5 1088281c-102933.05-353825.38 57898.05-599589.2 181417.2-716656.3 50180.16-43757.5 123517.36-54042.54 150536.1 39889.94 92638.17 299781.66 357687.1 1157976.4 357687.1 1157976.4h1290.37s263764.13-858177.87 357686.33-1157976.4c28307.8-93917.85 101643.6-83647.44 150535.4-39889.9 123519.6 117077.17 284349.7 362830.9 181416.4 716664.1-86204.2 299788.38-445178.7 490206.58-445178.7 490206.58l418160.6 1295.2s217445.8-249593.1 235459.6-540406.28c21873.4-369250.67-122234.3-602145.84-290784.8-753970.45z" fill="#2250a3"/></g><g id="g2984"><path d="M1608207.14 285413.9c-156970-141526.07-306222.1-185283.57-306222.1-185283.57l-301072.76 1025481.7h-2577.66l-303646.6-1025481.7S545435.2 142587.03 388464.66 285413.9C221199.2 437238.53 77096.53 670133.7 101541.88 1039383.24c19301.2 292073.5 235458.2 540387.2 235458.2 540387.2l418163.1-1285.1S396186.78 1388077.24 309981.5 1088281c-102933.05-353825.38 57898.05-599589.2 181417.2-716656.3 50180.16-43757.5 123517.36-54042.54 150536.1 39889.94 92638.17 299781.66 357687.1 1157976.4 357687.1 1157976.4h1290.37s263764.13-858177.87 357686.33-1157976.4c28307.8-93917.85 101643.6-83647.44 150535.4-39889.9 123519.6 117077.17 284349.7 362830.9 181416.4 716664.1-86204.2 299788.38-445178.7 490206.58-445178.7 490206.58l418160.6 1295.2s217445.8-249593.1 235459.6-540406.28c21873.4-369250.67-122234.3-602145.84-290784.8-753970.45z" class="fil0" id="path2986" opacity=".7" fill="none" stroke="#ffffff" stroke-width="200265.33" stroke-linejoin="round"/><path id="path2988" class="fil0" d="M1608207.14 285413.9c-156970-141526.07-306222.1-185283.57-306222.1-185283.57l-301072.76 1025481.7h-2577.66l-303646.6-1025481.7S545435.2 142587.03 388464.66 285413.9C221199.2 437238.53 77096.53 670133.7 101541.88 1039383.24c19301.2 292073.5 235458.2 540387.2 235458.2 540387.2l418163.1-1285.1S396186.78 1388077.24 309981.5 1088281c-102933.05-353825.38 57898.05-599589.2 181417.2-716656.3 50180.16-43757.5 123517.36-54042.54 150536.1 39889.94 92638.17 299781.66 357687.1 1157976.4 357687.1 1157976.4h1290.37s263764.13-858177.87 357686.33-1157976.4c28307.8-93917.85 101643.6-83647.44 150535.4-39889.9 123519.6 117077.17 284349.7 362830.9 181416.4 716664.1-86204.2 299788.38-445178.7 490206.58-445178.7 490206.58l418160.6 1295.2s217445.8-249593.1 235459.6-540406.28c21873.4-369250.67-122234.3-602145.84-290784.8-753970.45z" fill="#2250a3"/></g></svg>