<svg xmlns="http://www.w3.org/2000/svg" width="18" height="15.013" id="svg2">
  <path d="M1.758 14.97c-.355-.087-1.21-1.565-1.503-2.89C0 10.75 0 10.61 0 9.206c0-2.015.115-2.598.85-4.12C1.99 2.71 4.16.918 6.72.242 7.756 0 9.825 0 10.84.14c2.824.618 5.19 2.523 6.407 5.156.586 1.268.81 2.165.74 3.964-.068 1.768-.077 2.53-.288 3.213-.22.693-.61 2.22-1.05 2.42-.44.2-7.43.09-7.43.09-3.96-.007-7.115.072-7.47-.013zm14.196-1.237c.436-.282.928-2.628.938-4.472.008-1.58-.152-2.33-.778-3.63-.82-1.71-1.966-2.87-3.655-3.7-1.18-.57-2.15-.8-3.47-.8-1.27 0-2.227.21-3.333.74-1.755.83-2.95 1.995-3.77 3.67-.64 1.31-.8 2.035-.8 3.62 0 1.956.402 4.03.87 4.5.14.14 1.1.16 7.014.16 3.768 0 6.907-.04 6.974-.08zM2.49 12.127l-.008-1.26h.73c1.013-2.57 2.96-7.765 2.976-7.773-.02.023 2.913 5.06 2.902 5.054-.01-.004 2.677-5.06 2.678-5.066.008 0 2.933 7.802 2.935 7.785.092.026.326 0 .84 0-.01.015.006 1.245.006 1.26l-3.26.022c.01-.03-.02-1.2-.03-1.22l.42-.01c.01 0-1.206-3.8-1.205-3.8-1.04 1.525-2.353 5.003-2.315 5 .006.024-2.336-4.89-2.353-4.895.014.003-1.554 3.623-1.54 3.636h.384v1.26H2.49z" id="tbilisi-metro-18" fill="red"/>
</svg>
