<svg xmlns="http://www.w3.org/2000/svg" width="18" height="18" id="svg2">
  <g id="vog-metro-18">
    <path d="M18 9c0 4.97-4.03 9-9 9s-9-4.03-9-9 4.03-9 9-9 9 4.03 9 9z" id="path3002" fill="#d40000"/>
    <path id="path3008" d="M7.055 3.303c-2.57 0-4.652 2.082-4.652 4.65 0 2.568 2.083 4.65 4.652 4.65 1.764 0 3.3-.983 4.086-2.432H8.708c-.46.346-1.032.55-1.65.55-1.53 0-2.768-1.24-2.768-2.766 0-1.528 1.24-2.766 2.766-2.766.817 0 1.552.356 2.058.92h2.21c-.716-1.65-2.356-2.804-4.27-2.804z" fill="#fff" fill-rule="evenodd"/>
    <path id="rect3786" d="M9.254 7.824h7.08V9.6h-7.08z" fill="none"/>
    <path id="rect3788" d="M9.254 7.825V9.6h2.61v5.13h1.86V9.6h2.61V7.824h-7.08z" fill="#fff"/>
  </g>
</svg>
