<svg xmlns="http://www.w3.org/2000/svg" width="17.991" height="17.996" id="svg2">
  <g id="waw-metro-18">
    <path id="path4" d="M17.797 8.997c0 4.86-3.94 8.8-8.8 8.8-4.86 0-8.8-3.94-8.8-8.8 0-4.86 3.94-8.8 8.8-8.8 4.86 0 8.8 3.94 8.8 8.8z" fill="#fcf604" stroke="#dc251b" stroke-width=".395" stroke-linejoin="round"/>
    <path id="path6" d="M5.332 13.01l-2.696-.025 1.598-9.603 2.753.055zm8.53-9.564l-2.717.055-.006-.04-.02.05h-.02l.004.03-1.88 5.5.684 1.63 1.257-.34.844-1.57.745 4.32 2.694-.022-1.59-9.606z" fill="#dc251b"/>
    <path id="path8" d="M7.196 4.327L6.322 9.57l.887 2.515-1.56.646 3.98 2.26 1.65-4.19-1.6.34z" fill="#dc251b"/>
  </g>
</svg>
