<?xml version="1.0" encoding="UTF-8" standalone="no"?>
<!-- Created with Inkscape (http://www.inkscape.org/) -->

<svg
   xmlns:dc="http://purl.org/dc/elements/1.1/"
   xmlns:cc="http://creativecommons.org/ns#"
   xmlns:rdf="http://www.w3.org/1999/02/22-rdf-syntax-ns#"
   xmlns:svg="http://www.w3.org/2000/svg"
   xmlns="http://www.w3.org/2000/svg"
   xmlns:sodipodi="http://sodipodi.sourceforge.net/DTD/sodipodi-0.dtd"
   xmlns:inkscape="http://www.inkscape.org/namespaces/inkscape"
   version="1.1"
   width="18"
   height="18"
   id="svg4619"
   inkscape:version="0.48.4 r9939"
   sodipodi:docname="cafe-18.svg">
  <sodipodi:namedview
     pagecolor="#ffffff"
     bordercolor="#666666"
     borderopacity="1"
     objecttolerance="10"
     gridtolerance="10"
     guidetolerance="10"
     inkscape:pageopacity="0"
     inkscape:pageshadow="2"
     inkscape:window-width="1920"
     inkscape:window-height="1142"
     id="namedview11"
     showgrid="false"
     inkscape:zoom="13.111111"
     inkscape:cx="-6.4067797"
     inkscape:cy="9"
     inkscape:window-x="0"
     inkscape:window-y="0"
     inkscape:window-maximized="1"
     inkscape:current-layer="svg4619" />
  <defs
     id="defs4621" />
  <metadata
     id="metadata4624">
    <rdf:RDF>
      <cc:Work
         rdf:about="">
        <dc:format>image/svg+xml</dc:format>
        <dc:type
           rdf:resource="http://purl.org/dc/dcmitype/StillImage" />
        <dc:title></dc:title>
      </cc:Work>
    </rdf:RDF>
  </metadata>
  <g
     transform="translate(0,-1034.3622)"
     id="layer1">
    <g
       transform="translate(-341.99999,-39.999983)"
       id="cafe-18"
       style="display:inline">
      <g
         id="g21594">
        <path
           d="m 347,1077.3622 c -0.5,0 -1,0.5 -1,1 l 0,6 c 0,0.5 0.5,1 1,1 l 7,0 c 0.40011,0 1,-0.5 1,-1 l 0,-0.4444 0.36111,0 c 0.36111,0 0.36111,-0.3611 0.36111,-0.3611 l 0,-0.3611 0.44445,0 c 0.72222,0 1.83333,-0.3334 1.83333,-1.4444 l 0,-1.889 c 0,-0.5 -0.25,-1 -0.75,-1 l -2.25,0 0,-0.5 c 0,-0.5 -0.5,-1 -1,-1 z m 8,2.2223 1.88889,0 c 0.36111,0 0.36111,0.2777 0.36111,0.2777 l 0,1.889 c 0,0.572 -0.72225,0.6064 -1.08333,0.611 l -0.44445,0 -0.72222,0 z m -10,6.7777 2,2 7,0 2,-2 z"
           inkscape:connector-curvature="0"
           id="path14891"
           style="opacity:0.3;color:#000000;fill:#ffffff;fill-opacity:1;fill-rule:nonzero;stroke:#ffffff;stroke-width:2;stroke-linecap:butt;stroke-linejoin:round;stroke-miterlimit:4;stroke-opacity:1;stroke-dasharray:none;stroke-dashoffset:0;marker:none;visibility:visible;display:inline;overflow:visible;enable-background:accumulate" />
        <path
           d="m 347,1077.3622 c -0.5,0 -1,0.5 -1,1 l 0,6 c 0,0.5 0.5,1 1,1 l 7,0 c 0.40011,0 1,-0.5 1,-1 l 0,-0.4444 0.36111,0 c 0.36111,0 0.36111,-0.3611 0.36111,-0.3611 l 0,-0.3611 0.44445,0 c 0.72222,0 1.83333,-0.3334 1.83333,-1.4444 l 0,-1.889 c 0,-0.5 -0.25,-1 -0.75,-1 l -2.25,0 0,-0.5 c 0,-0.5 -0.5,-1 -1,-1 z m 8,2.2223 1.88889,0 c 0.36111,0 0.36111,0.2777 0.36111,0.2777 l 0,1.889 c 0,0.572 -0.72225,0.6064 -1.08333,0.611 l -0.44445,0 -0.72222,0 z m -10,6.7777 2,2 7,0 2,-2 z"
           inkscape:connector-curvature="0"
           id="rect9826-2-1-5-9"
           style="color:#000000;fill:#777777;fill-opacity:1;fill-rule:nonzero;stroke:none;stroke-width:2;marker:none;visibility:visible;display:inline;overflow:visible;enable-background:accumulate" />
      </g>
    </g>
  </g>
  <rect
     width="18"
     height="18"
     x="0"
     y="0"
     id="canvas"
     style="fill:none;stroke:none;visibility:hidden" />
</svg>
