<svg xmlns="http://www.w3.org/2000/svg" width="12" height="12" id="svg4764">
  <path d="M4.75 1L3 2.5V8h7V2.5L8 1H4.75zM5 2h3v1H5V2zM4 4h5v1H4V4zm0 2h1v1H4V6zm4 0h1v1H8V6zM4 8.5V9H3v1h3V8.5H4zm3 0V10h3V9H9v-.5H7z" id="path6575" opacity=".3" fill="none" stroke="#fff" stroke-width="2" stroke-linecap="round" stroke-linejoin="round"/>
  <path d="M4.75 1L3 2.5V8h7V2.5L8 1H4.75zM5 2h3v1H5V2zM4 4h5v1H4V4zm0 2h1v1H4V6zm4 0h1v1H8V6zM4 8.5V9H3v1h3V8.5H4zm3 0V10h3V9H9v-.5H7z" id="path3212" fill="#924f46"/>
  <path id="canvas" fill="none" visibility="hidden" d="M0 0h12v12H0z"/>
</svg>
