<?xml version="1.0" encoding="UTF-8" standalone="no"?>
<!-- Created with Inkscape (http://www.inkscape.org/) -->

<svg
   xmlns:dc="http://purl.org/dc/elements/1.1/"
   xmlns:cc="http://creativecommons.org/ns#"
   xmlns:rdf="http://www.w3.org/1999/02/22-rdf-syntax-ns#"
   xmlns:svg="http://www.w3.org/2000/svg"
   xmlns="http://www.w3.org/2000/svg"
   xmlns:sodipodi="http://sodipodi.sourceforge.net/DTD/sodipodi-0.dtd"
   xmlns:inkscape="http://www.inkscape.org/namespaces/inkscape"
   version="1.1"
   width="18"
   height="18"
   id="svg4619"
   inkscape:version="0.48.4 r9939"
   sodipodi:docname="restaurant-18.svg">
  <sodipodi:namedview
     pagecolor="#ffffff"
     bordercolor="#666666"
     borderopacity="1"
     objecttolerance="10"
     gridtolerance="10"
     guidetolerance="10"
     inkscape:pageopacity="0"
     inkscape:pageshadow="2"
     inkscape:window-width="1920"
     inkscape:window-height="1142"
     id="namedview11"
     showgrid="false"
     inkscape:zoom="22.627417"
     inkscape:cx="16.282134"
     inkscape:cy="8.1049528"
     inkscape:window-x="0"
     inkscape:window-y="0"
     inkscape:window-maximized="1"
     inkscape:current-layer="svg4619" />
  <defs
     id="defs4621" />
  <metadata
     id="metadata4624">
    <rdf:RDF>
      <cc:Work
         rdf:about="">
        <dc:format>image/svg+xml</dc:format>
        <dc:type
           rdf:resource="http://purl.org/dc/dcmitype/StillImage" />
        <dc:title></dc:title>
      </cc:Work>
    </rdf:RDF>
  </metadata>
  <rect
     width="18"
     height="18"
     x="0"
     y="0"
     id="canvas"
     style="fill:#b5a29b;stroke:none;fill-opacity:1" />
  <g
     transform="translate(0,-1034.3622)"
     id="layer1">
    <g
       transform="translate(-341.99999,-15.999983)"
       id="restaurant-18"
       style="display:inline">
      <g
         id="g21606">
        <path
           d="m 348,1052.3622 -1,0 c 0,1.2963 0,3.2037 0,4.5 0,0.7777 1,0.7222 1,1.5 l 0,7 c 0,0.3889 0.5,1 1,1 0.5,0 1,-0.5 1,-1 l 0,-7 c 0,-0.7778 1,-0.7223 1,-1.5 0,-1.2963 0,-3.2037 0,-4.5 l -1,0 0,3 -0.5,0 0,-3 -1,0 0,3 -0.5,0 z m 8,0 c -0.77778,0 -2.00808,0.5162 -2.5,1.5 -0.38889,0.7777 -0.5,2.5 -0.5,3.5 l 0,3 c 0,0.5 0.61111,1 1,1 l 0,4 c 0,0.5 0.5,1 1,1 0.5,0 1,-0.5 1,-1 z"
           inkscape:connector-curvature="0"
           id="path14875"
           style="opacity:0.3;color:#000000;fill:#ffffff;fill-opacity:1;fill-rule:nonzero;stroke:#ffffff;stroke-width:2;stroke-linecap:butt;stroke-linejoin:round;stroke-miterlimit:4;stroke-opacity:1;stroke-dasharray:none;stroke-dashoffset:0;marker:none;visibility:visible;display:inline;overflow:visible;enable-background:accumulate" />
        <path
           d="m 348,1052.3622 -1,0 c 0,1.2963 0,3.2037 0,4.5 0,0.7777 1,0.7222 1,1.5 l 0,7 c 0,0.3889 0.5,1 1,1 0.5,0 1,-0.5 1,-1 l 0,-7 c 0,-0.7778 1,-0.7223 1,-1.5 0,-1.2963 0,-3.2037 0,-4.5 l -1,0 0,3 -0.5,0 0,-3 -1,0 0,3 -0.5,0 z m 8,0 c -0.77778,0 -2.00808,0.5162 -2.5,1.5 -0.38889,0.7777 -0.5,2.5 -0.5,3.5 l 0,3 c 0,0.5 0.61111,1 1,1 l 0,4 c 0,0.5 0.5,1 1,1 0.5,0 1,-0.5 1,-1 z"
           inkscape:connector-curvature="0"
           id="rect6396-83"
           style="color:#000000;fill:#ffffff;fill-opacity:1;fill-rule:nonzero;stroke:none;stroke-width:2;marker:none;visibility:visible;display:inline;overflow:visible;enable-background:accumulate" />
      </g>
    </g>
  </g>
</svg>
